<?xml version="1.0" standalone="no"?>
<!DOCTYPE svg PUBLIC "-//W3C//DTD SVG 20010904//EN"
 "http://www.w3.org/TR/2001/REC-SVG-20010904/DTD/svg10.dtd">
<svg version="1.0" xmlns="http://www.w3.org/2000/svg"
 width="700.000000pt" height="700.000000pt" viewBox="0 0 700.000000 700.000000"
 preserveAspectRatio="xMidYMid meet">
<metadata>
Created by potrace 1.14, written by Peter Selinger 2001-2017
</metadata>
<g transform="translate(0.000000,700.000000) scale(0.100000,-0.100000)"
fill="#000000" stroke="none">
<path d="M585 6110 c-50 -18 -82 -43 -114 -89 -32 -45 -39 -150 -14 -204 12
-24 510 -530 1421 -1441 l1404 -1403 -1 -789 c0 -434 0 -808 0 -830 l-1 -42
-459 0 c-511 -1 -512 -1 -572 -70 -44 -49 -61 -96 -58 -156 4 -85 50 -154 127
-192 35 -17 97 -18 1171 -19 1246 0 1186 -3 1253 60 89 84 90 234 2 317 -63
59 -64 59 -565 60 l-459 0 0 82 c-1 44 -1 418 -1 830 l0 749 1403 1403 c1020
1020 1408 1414 1421 1443 48 110 -2 238 -113 288 -32 15 -300 16 -2920 17
-2543 1 -2889 -1 -2925 -14z m5225 -425 c0 -1 -97 -100 -216 -219 l-216 -216
-1877 0 -1877 0 -195 194 c-107 107 -204 205 -217 219 l-23 24 2311 0 c1270 0
2310 -1 2310 -2z m-880 -876 c0 -9 -1421 -1429 -1430 -1429 -11 0 -1430 1422
-1426 1429 5 8 2856 8 2856 0z"/>
</g>
</svg>
